<?xml version="1.0" encoding="UTF-8"?>
<svg id="Layer_1" data-name="Layer 1" xmlns="http://www.w3.org/2000/svg" viewBox="0 0 300 240.02">
  <defs>
    <style>
      .cls-1 {
        fill: #005aea;
      }
    </style>
  </defs>
  <g>
    <g>
      <g>
        <path class="cls-1" d="M3.41,155.67h9.32c1.87,0,3.47.34,4.79,1.02,1.32.68,2.32,1.62,2.98,2.81.67,1.19,1,2.54,1,4.02,0,2.05-.54,3.73-1.62,5.02-1.08,1.3-2.41,2.16-4,2.6l6.7,11.47h-4.23s-6.35-10.97-6.35-10.97h-4.74v10.97s-3.85,0-3.85,0v-26.95ZM12.65,168.26c1.54,0,2.76-.4,3.66-1.19s1.35-1.92,1.35-3.39c0-1.51-.46-2.65-1.39-3.41-.92-.76-2.16-1.13-3.7-1.13h-5.31v9.12h5.39Z"/>
        <path class="cls-1" d="M27.86,174.26c.08,1.03.37,1.98.87,2.85.5.87,1.19,1.57,2.06,2.1.87.53,1.86.79,2.96.79,1.33,0,2.46-.33,3.37-.98.91-.66,1.52-1.43,1.83-2.33l3.23,1.04c-.57,1.59-1.57,2.89-3,3.91-1.44,1.01-3.25,1.52-5.43,1.52-1.85,0-3.5-.44-4.95-1.33-1.45-.88-2.58-2.1-3.39-3.64-.81-1.54-1.21-3.25-1.21-5.12,0-1.85.42-3.54,1.25-5.06.83-1.53,1.98-2.73,3.43-3.62,1.45-.88,3.06-1.33,4.83-1.33s3.37.41,4.72,1.21c1.35.81,2.39,1.94,3.14,3.41.75,1.46,1.12,3.16,1.12,5.08v1.5s-14.82,0-14.82,0ZM37.66,167.74c-.99-1.01-2.29-1.52-3.91-1.52-1.62,0-2.94.49-3.97,1.46-1.03.98-1.65,2.18-1.89,3.62h11.39c-.1-1.36-.65-2.55-1.64-3.56Z"/>
        <path class="cls-1" d="M46.8,155.67h3.77s0,26.95,0,26.95h-3.77s0-26.95,0-26.95Z"/>
        <path class="cls-1" d="M55.93,160.04c-.49-.47-.73-1.06-.73-1.75s.24-1.24.73-1.73c.49-.49,1.08-.73,1.77-.73s1.24.24,1.71.73c.47.49.71,1.07.71,1.73,0,.69-.24,1.28-.71,1.75-.48.48-1.05.71-1.71.71s-1.28-.24-1.77-.71ZM55.77,163.56h3.77s0,19.06,0,19.06h-3.77s0-19.06,0-19.06Z"/>
        <path class="cls-1" d="M66.98,182.41c-1-.5-1.77-1.19-2.31-2.08-.54-.89-.81-1.88-.81-2.98,0-1.64.57-3,1.71-4.06,1.14-1.07,3.05-1.79,5.72-2.17l4.58-.66v-.42c0-2.59-1.36-3.89-4.08-3.89-1.31,0-2.3.3-2.98.91s-1.11,1.46-1.29,2.56l-3.35-.81c.92-3.82,3.49-5.74,7.7-5.74,2.33,0,4.22.59,5.64,1.77,1.42,1.18,2.14,2.9,2.14,5.16v12.63s-3.2,0-3.2,0l-.39-1.85c-1.15,1.59-3.03,2.39-5.62,2.39-1.31,0-2.46-.25-3.46-.75ZM74.56,178.96c.87-.72,1.31-1.76,1.31-3.12v-2.5s-4.27.65-4.27.65c-1.36.21-2.38.55-3.06,1.02s-1.02,1.19-1.02,2.14c0,.87.35,1.57,1.04,2.1.69.53,1.63.79,2.81.79,1.26,0,2.32-.36,3.2-1.08Z"/>
        <path class="cls-1" d="M90.46,182.23c-1.08-.59-1.94-1.32-2.58-2.2l-.5,2.58h-3.12s0-26.95,0-26.95h3.77s0,10.36,0,10.36c.64-.87,1.5-1.59,2.58-2.16s2.32-.85,3.73-.85c1.85,0,3.46.46,4.85,1.39,1.38.92,2.44,2.15,3.18,3.68.73,1.53,1.1,3.19,1.1,4.99,0,1.75-.38,3.39-1.15,4.93-.77,1.54-1.86,2.78-3.25,3.71-1.4.94-2.98,1.41-4.76,1.41-1.49,0-2.77-.29-3.85-.88ZM96.85,178.87c.9-.58,1.6-1.37,2.1-2.39.5-1.01.75-2.15.75-3.41,0-1.28-.25-2.43-.75-3.45-.5-1.01-1.2-1.8-2.1-2.37-.9-.56-1.9-.85-3-.85-1.72,0-3.13.62-4.22,1.87-1.09,1.24-1.64,2.84-1.64,4.79,0,1.92.55,3.52,1.64,4.77,1.09,1.26,2.5,1.89,4.22,1.89,1.1,0,2.1-.29,3-.87Z"/>
        <path class="cls-1" d="M107.59,155.67h3.77s0,26.95,0,26.95h-3.77s0-26.95,0-26.95Z"/>
        <path class="cls-1" d="M119.14,174.26c.08,1.03.37,1.98.87,2.85.5.87,1.19,1.57,2.06,2.1.87.53,1.86.79,2.96.79,1.33,0,2.46-.33,3.37-.98.91-.66,1.52-1.43,1.83-2.33l3.23,1.04c-.57,1.59-1.57,2.89-3,3.91-1.44,1.01-3.25,1.52-5.43,1.52-1.85,0-3.5-.44-4.95-1.33-1.45-.88-2.58-2.1-3.39-3.64s-1.21-3.25-1.21-5.12c0-1.85.42-3.54,1.25-5.06.83-1.53,1.98-2.73,3.43-3.62,1.45-.88,3.06-1.33,4.83-1.33,1.8,0,3.37.41,4.72,1.21,1.35.81,2.39,1.94,3.14,3.41.75,1.46,1.12,3.16,1.12,5.08v1.5s-14.82,0-14.82,0ZM128.94,167.74c-.99-1.01-2.29-1.52-3.91-1.52-1.62,0-2.94.49-3.97,1.46-1.03.98-1.65,2.18-1.89,3.62h11.39c-.1-1.36-.65-2.55-1.64-3.56Z"/>
      </g>
      <g>
        <path class="cls-1" d="M148.36,155.67h9.09c2.72,0,4.92.71,6.6,2.14,1.68,1.42,2.52,3.5,2.52,6.22,0,1.77-.39,3.29-1.17,4.54-.78,1.26-1.86,2.21-3.22,2.85-1.36.64-2.89.96-4.58.96h-5.39v10.24s-3.85,0-3.85,0v-26.95ZM157.18,168.91c1.77,0,3.14-.42,4.1-1.27.96-.85,1.45-2.07,1.45-3.66,0-1.57-.49-2.77-1.46-3.6-.98-.83-2.33-1.25-4.08-1.25h-4.97v9.78h4.97Z"/>
        <path class="cls-1" d="M170.15,163.56h3.12s.58,2.39.58,2.39c.46-.82,1.12-1.51,1.98-2.08.86-.57,1.85-.85,2.98-.85.74,0,1.41.1,2,.29.59.19,1.07.42,1.43.67l-1.46,3.31c-.23-.18-.56-.34-.98-.48-.42-.14-.92-.21-1.48-.21-1.26,0-2.3.49-3.14,1.48s-1.25,2.32-1.25,3.98v10.55s-3.77,0-3.77,0v-19.06Z"/>
        <path class="cls-1" d="M186.9,174.26c.08,1.03.37,1.98.87,2.85.5.87,1.19,1.57,2.06,2.1.87.53,1.86.79,2.96.79,1.33,0,2.46-.33,3.37-.98.91-.66,1.52-1.43,1.83-2.33l3.23,1.04c-.57,1.59-1.57,2.89-3,3.91-1.44,1.01-3.25,1.52-5.43,1.52-1.85,0-3.5-.44-4.95-1.33-1.45-.88-2.58-2.1-3.39-3.64-.81-1.54-1.21-3.25-1.21-5.12s.42-3.54,1.25-5.06c.83-1.53,1.98-2.73,3.43-3.62,1.45-.88,3.06-1.33,4.83-1.33s3.37.41,4.72,1.21c1.35.81,2.39,1.94,3.14,3.41.75,1.46,1.12,3.16,1.12,5.08v1.5s-14.82,0-14.82,0ZM196.7,167.74c-.99-1.01-2.29-1.52-3.91-1.52-1.62,0-2.94.49-3.97,1.46-1.03.98-1.65,2.18-1.89,3.62h11.39c-.1-1.36-.65-2.55-1.64-3.56Z"/>
        <path class="cls-1" d="M205.84,163.56h3.12s.54,2.42.54,2.42c.67-.92,1.51-1.65,2.52-2.17,1.01-.53,2.18-.79,3.48-.79s2.45.29,3.35.87c.9.58,1.57,1.33,2,2.25.69-.95,1.58-1.71,2.66-2.27,1.08-.57,2.31-.85,3.7-.85,1.85,0,3.34.58,4.48,1.73,1.14,1.16,1.71,2.89,1.71,5.2v12.67s-3.77,0-3.77,0v-11.47c0-1.67-.32-2.85-.96-3.54-.64-.69-1.57-1.04-2.77-1.04s-2.3.46-3.14,1.38c-.83.92-1.25,2.22-1.25,3.89v10.78s-3.77,0-3.77,0v-11.47c0-3.05-1.23-4.58-3.7-4.58-1.26,0-2.31.46-3.16,1.38-.85.92-1.27,2.22-1.27,3.89v10.78s-3.77,0-3.77,0v-19.06Z"/>
        <path class="cls-1" d="M238.76,160.04c-.49-.47-.73-1.06-.73-1.75,0-.67.24-1.24.73-1.73.49-.49,1.08-.73,1.77-.73.67,0,1.24.24,1.71.73.47.49.71,1.07.71,1.73s-.24,1.28-.71,1.75c-.48.48-1.05.71-1.71.71-.69,0-1.28-.24-1.77-.71ZM238.61,163.56h3.77s0,19.06,0,19.06h-3.77s0-19.06,0-19.06Z"/>
        <path class="cls-1" d="M264.02,182.62h-3.12s-.58-2.43-.58-2.43c-1.46,1.98-3.48,2.96-6.04,2.96-2.1,0-3.75-.62-4.93-1.87-1.18-1.24-1.77-3.15-1.77-5.72v-12.01s3.77,0,3.77,0v11.36c0,1.72.36,2.94,1.08,3.66.72.72,1.72,1.08,3,1.08,1.36,0,2.5-.48,3.43-1.44.93-.96,1.39-2.29,1.39-3.98v-10.67s3.77,0,3.77,0v19.06Z"/>
        <path class="cls-1" d="M269.02,163.56h3.12s.54,2.42.54,2.42c.67-.92,1.51-1.65,2.52-2.17,1.01-.53,2.18-.79,3.48-.79,1.33,0,2.45.29,3.35.87.9.58,1.57,1.33,2,2.25.69-.95,1.58-1.71,2.66-2.27,1.08-.57,2.31-.85,3.7-.85,1.85,0,3.34.58,4.48,1.73,1.14,1.16,1.71,2.89,1.71,5.2v12.67s-3.77,0-3.77,0v-11.47c0-1.67-.32-2.85-.96-3.54-.64-.69-1.57-1.04-2.77-1.04s-2.3.46-3.14,1.38c-.83.92-1.25,2.22-1.25,3.89v10.78s-3.77,0-3.77,0v-11.47c0-3.05-1.23-4.58-3.7-4.58-1.26,0-2.31.46-3.16,1.38-.85.92-1.27,2.22-1.27,3.89v10.78s-3.77,0-3.77,0v-19.06Z"/>
      </g>
    </g>
    <g>
      <path class="cls-1" d="M64.93,229.86h-3.81s0-19.83,0-19.83l-8.47,19.83h-2.85s-8.39-19.75-8.39-19.75l-.04,19.75h-3.81s0-26.95,0-26.95h4.39s9.32,21.79,9.32,21.79l9.28-21.79h4.43s-.04,26.95-.04,26.95Z"/>
      <path class="cls-1" d="M72.79,229.65c-1-.5-1.77-1.19-2.31-2.08-.54-.89-.81-1.88-.81-2.98,0-1.64.57-3,1.71-4.06,1.14-1.07,3.05-1.79,5.72-2.17l4.58-.66v-.42c0-2.59-1.36-3.89-4.08-3.89-1.31,0-2.3.3-2.98.91-.68.6-1.11,1.46-1.29,2.56l-3.35-.81c.92-3.82,3.49-5.74,7.7-5.74,2.33,0,4.22.59,5.64,1.77,1.42,1.18,2.14,2.9,2.14,5.16v12.63s-3.2,0-3.2,0l-.39-1.85c-1.15,1.59-3.03,2.39-5.62,2.39-1.31,0-2.46-.25-3.46-.75ZM80.37,226.2c.87-.72,1.31-1.76,1.31-3.12v-2.5s-4.27.65-4.27.65c-1.36.21-2.38.55-3.06,1.02s-1.02,1.19-1.02,2.14c0,.87.35,1.57,1.04,2.1s1.63.79,2.81.79c1.26,0,2.32-.36,3.2-1.08Z"/>
      <path class="cls-1" d="M90.07,210.8h3.12s.58,2.42.58,2.42c1.46-1.98,3.48-2.96,6.04-2.96,2.1,0,3.75.63,4.93,1.89,1.18,1.26,1.77,3.17,1.77,5.74v11.97s-3.77,0-3.77,0v-11.32c0-1.75-.36-2.97-1.08-3.68-.72-.71-1.72-1.06-3-1.06-1.36,0-2.5.48-3.43,1.44-.92.96-1.38,2.29-1.38,3.99v10.63s-3.77,0-3.77,0v-19.06Z"/>
      <path class="cls-1" d="M113.75,229.65c-1-.5-1.77-1.19-2.31-2.08-.54-.89-.81-1.88-.81-2.98,0-1.64.57-3,1.71-4.06,1.14-1.07,3.05-1.79,5.72-2.17l4.58-.66v-.42c0-2.59-1.36-3.89-4.08-3.89-1.31,0-2.3.3-2.98.91s-1.11,1.46-1.29,2.56l-3.35-.81c.92-3.82,3.49-5.74,7.7-5.74,2.33,0,4.22.59,5.64,1.77,1.42,1.18,2.14,2.9,2.14,5.16v12.63s-3.2,0-3.2,0l-.39-1.85c-1.15,1.59-3.03,2.39-5.62,2.39-1.31,0-2.46-.25-3.46-.75ZM121.34,226.2c.87-.72,1.31-1.76,1.31-3.12v-2.5s-4.27.65-4.27.65c-1.36.21-2.38.55-3.06,1.02-.68.47-1.02,1.19-1.02,2.14,0,.87.35,1.57,1.04,2.1.69.53,1.63.79,2.81.79,1.26,0,2.32-.36,3.2-1.08Z"/>
      <path class="cls-1" d="M133.95,236.6c-1.43-1.1-2.41-2.59-2.95-4.47l3.54-.85c.64,2.49,2.33,3.73,5.08,3.73,1.87,0,3.3-.47,4.29-1.42s1.48-2.28,1.48-4v-2.85c-.54.87-1.35,1.61-2.42,2.21-1.08.6-2.34.91-3.78.91-1.85,0-3.45-.44-4.81-1.33-1.36-.88-2.41-2.07-3.14-3.56-.73-1.49-1.1-3.11-1.1-4.85s.37-3.37,1.12-4.87c.74-1.5,1.8-2.71,3.18-3.62,1.37-.91,2.95-1.37,4.72-1.37,1.49,0,2.75.29,3.79.87,1.04.58,1.85,1.3,2.44,2.17l.62-2.5h3.16s0,18.71,0,18.71c0,1.64-.35,3.12-1.06,4.45-.7,1.32-1.77,2.37-3.2,3.14-1.42.77-3.19,1.15-5.29,1.15-2.36,0-4.26-.55-5.68-1.66ZM143.8,224.72c1.07-1.17,1.6-2.7,1.6-4.6,0-1.93-.53-3.49-1.6-4.68-1.07-1.19-2.45-1.79-4.14-1.79-1.7,0-3.08.6-4.14,1.79-1.07,1.19-1.6,2.75-1.6,4.68,0,1.9.53,3.43,1.6,4.6,1.07,1.17,2.46,1.75,4.18,1.75,1.67,0,3.03-.58,4.1-1.75Z"/>
      <path class="cls-1" d="M156.95,221.5c.08,1.03.37,1.98.87,2.85.5.87,1.19,1.57,2.06,2.1.87.53,1.86.79,2.96.79,1.33,0,2.46-.33,3.37-.98.91-.66,1.52-1.43,1.83-2.33l3.23,1.04c-.57,1.59-1.57,2.89-3,3.91-1.44,1.01-3.25,1.52-5.43,1.52-1.85,0-3.5-.44-4.95-1.33-1.45-.88-2.58-2.1-3.39-3.64-.81-1.54-1.21-3.25-1.21-5.12s.42-3.54,1.25-5.06c.83-1.53,1.98-2.73,3.43-3.62,1.45-.88,3.06-1.33,4.83-1.33,1.8,0,3.37.41,4.72,1.21,1.35.81,2.39,1.94,3.14,3.41.75,1.46,1.12,3.16,1.12,5.08v1.5s-14.82,0-14.82,0ZM166.75,214.98c-.99-1.01-2.29-1.52-3.91-1.52-1.62,0-2.94.49-3.97,1.46-1.03.98-1.65,2.18-1.89,3.62h11.39c-.1-1.36-.65-2.55-1.64-3.56Z"/>
      <path class="cls-1" d="M175.89,210.8h3.12s.54,2.42.54,2.42c.67-.92,1.51-1.65,2.52-2.17,1.01-.53,2.18-.79,3.48-.79,1.33,0,2.45.29,3.35.87.9.58,1.57,1.33,2,2.25.69-.95,1.58-1.71,2.66-2.27,1.08-.57,2.31-.85,3.7-.85,1.85,0,3.34.58,4.48,1.73,1.14,1.16,1.71,2.89,1.71,5.2v12.67s-3.77,0-3.77,0v-11.47c0-1.67-.32-2.85-.96-3.54-.64-.69-1.57-1.04-2.77-1.04s-2.3.46-3.14,1.38c-.83.92-1.25,2.22-1.25,3.89v10.78s-3.77,0-3.77,0v-11.47c0-3.05-1.23-4.58-3.7-4.58-1.26,0-2.31.46-3.16,1.38-.85.92-1.27,2.22-1.27,3.89v10.78s-3.77,0-3.77,0v-19.06Z"/>
      <path class="cls-1" d="M211.24,221.5c.08,1.03.37,1.98.87,2.85.5.87,1.19,1.57,2.06,2.1.87.53,1.86.79,2.96.79,1.33,0,2.46-.33,3.37-.98.91-.66,1.52-1.43,1.83-2.33l3.23,1.04c-.57,1.59-1.57,2.89-3,3.91-1.44,1.01-3.25,1.52-5.43,1.52-1.85,0-3.5-.44-4.95-1.33-1.45-.88-2.58-2.1-3.39-3.64-.81-1.54-1.21-3.25-1.21-5.12,0-1.85.42-3.54,1.25-5.06.83-1.53,1.98-2.73,3.43-3.62,1.45-.88,3.06-1.33,4.83-1.33,1.8,0,3.37.41,4.72,1.21,1.35.81,2.39,1.94,3.14,3.41s1.12,3.16,1.12,5.08v1.5s-14.82,0-14.82,0ZM221.04,214.98c-.99-1.01-2.29-1.52-3.91-1.52-1.62,0-2.94.49-3.97,1.46-1.03.98-1.65,2.18-1.89,3.62h11.39c-.1-1.36-.65-2.55-1.64-3.56Z"/>
      <path class="cls-1" d="M230.18,210.8h3.12s.58,2.42.58,2.42c1.46-1.98,3.48-2.96,6.04-2.96,2.1,0,3.75.63,4.93,1.89,1.18,1.26,1.77,3.17,1.77,5.74v11.97s-3.77,0-3.77,0v-11.32c0-1.75-.36-2.97-1.08-3.68-.72-.71-1.72-1.06-3-1.06-1.36,0-2.5.48-3.43,1.44-.92.96-1.38,2.29-1.38,3.99v10.63s-3.77,0-3.77,0v-19.06Z"/>
      <path class="cls-1" d="M254.49,228.99c-.94-.94-1.41-2.23-1.41-3.87v-10.93h-3.43s0-3.39,0-3.39h3.43v-4.97s3.78,0,3.78,0v4.97h5.16s0,3.39,0,3.39h-5.16v10.47c0,1.49.67,2.23,2,2.23.75,0,1.36-.24,1.85-.73l1.73,2.69c-.33.39-.87.74-1.6,1.06-.73.32-1.64.48-2.71.48-1.49,0-2.7-.47-3.64-1.41Z"/>
    </g>
  </g>
  <path class="cls-1" d="M209.94,63.47c-.47-2.44-1.64-4.77-3.53-6.65l-36.74-36.74-9.52-9.52-2.39-2.39-2.69-2.69c-2.74-2.74-6.42-3.93-10.01-3.67-2.98.21-5.9,1.4-8.17,3.67l-36.05,36.05-9.53,9.53-2.39,2.39-2,2c-3.13,3.13-4.3,7.48-3.53,11.52.47,2.44,1.64,4.77,3.53,6.66l36.74,36.74,9.52,9.52,2.39,2.39,2.69,2.69c2.51,2.5,5.8,3.76,9.09,3.76.31,0,.61-.07.92-.09,2.98-.21,5.9-1.4,8.16-3.67l36.05-36.05,9.53-9.53,2.39-2.39,2-2c3.13-3.13,4.3-7.48,3.53-11.52ZM89.18,71.36c-1.82-1.83-2.83-4.25-2.83-6.83s1.01-5.01,2.83-6.83l2-2,41.19,41.18-8.84,8.84-34.35-34.35ZM156.2,33.55l-9.53,9.53h0s-2.39,2.39-2.39,2.39h0s-17.35,17.36-17.35,17.36l-9.53-9.53,40.49-40.49,9.53,9.53-8.84,8.84h0s-2.39,2.38-2.39,2.38h0ZM164.03,65.22l-17.35,17.35-17.36-17.36,17.35-17.35,17.36,17.36ZM115.01,50.91l-9.52-9.52L139.15,7.73c1.88-1.88,4.36-2.83,6.83-2.83,2.48,0,4.95.94,6.83,2.83l2.69,2.69-40.49,40.49ZM144.29,84.96l-9.53,9.53-41.18-41.18,9.53-9.53,41.18,41.18ZM134.76,99.26h0s2.39-2.38,2.39-2.38h0s9.53-9.53,9.53-9.53h0s2.39-2.38,2.39-2.38h0s17.35-17.36,17.35-17.36l9.53,9.53-40.49,40.49-9.53-9.53,8.84-8.84ZM178.33,79.52l9.52,9.52-33.66,33.66c-3.77,3.77-9.9,3.77-13.67,0l-2.69-2.69,40.49-40.49ZM149.06,45.47l9.53-9.53,41.18,41.18-9.53,9.53-41.18-41.19ZM160.97,33.55l8.84-8.84,34.35,34.35c1.83,1.83,2.83,4.25,2.83,6.83,0,2.58-1,5.01-2.83,6.83l-2,2-41.18-41.18Z"/>
</svg>