<?xml version="1.0" encoding="UTF-8"?><svg id="Layer_2" xmlns="http://www.w3.org/2000/svg" viewBox="0 0 443.13862 370.2491"><g id="Layer_1-2"><path d="M246.28139,236.83783h.005-.005M208.29319,274.08392h.005-.005M118.04726,0c-.22617,0-.44981.00064-.67596.00192-30.37221.17221-60.67681,11.95612-83.59381,35.293-45.3443,46.18399-44.9923,120.57001.8008,166.30861l158.0274,157.85149c7.196,7.19605,16.70343,10.79408,26.21086,10.79408s19.01489-3.59803,26.21094-10.79408c7.548-7.548,11.0332-17.631,10.66409-27.5976.48273.01813.96701.02723,1.44995.02723,9.4953,0,18.97992-3.50399,26.16727-10.69133,7.60818-7.6082,10.92398-17.76849,10.48828-27.8125.57474.02468,1.15118.0371,1.72614.0371,9.46771,0,18.8981-3.35674,26.06677-10.52541,7.55292-7.55289,11.0387-17.6442,10.66409-27.61719.48273.01813.96735.02724,1.45032.02724,9.49527,0,18.97955-3.50391,26.1669-10.69124,14.38809-14.38811,14.38-38.0092,0-52.4024v-.0195l-76.66022-76.81641c-1.92068-1.92105-4.48093-2.93008-7.07541-2.93018-1.53171-.00006-3.0751.35153-4.50659,1.07468-16.13809,8.17181-27.155,12.56851-38.33987,15.09772-2.13864.48328-4.25615.71268-6.33571.71268-9.98969,0-19.12637-5.28967-25.77361-13.13458l70.0976-70.11722c17.41931-17.41925,40.17453-26.12888,62.92975-26.12888s45.51041,8.70963,62.92966,26.12888c34.8385,34.8385,34.8385,91.0209,0,125.85942l-9.082,9.08199c-3.98431,3.82541-4.1131,10.1564-.28769,14.14061,1.96359,2.04517,4.58774,3.07457,7.21545,3.07457,2.49149,0,4.98608-.92506,6.92523-2.78687.09781-.0939.1937-.1898.2876-.2877l9.082-9.082c42.48151-42.4814,42.48151-111.6591,0-154.14061C390.03628,10.69522,362.1224.08002,334.20721.08002s-55.82962,10.61481-77.07031,31.8555l-76.9922,77.01172c-3.11391,3.11118-3.8275,7.89249-1.7578,11.7774,9.483,17.80106,27.98767,28.71008,47.61453,28.71008,3.87775,0,7.79724-.42545,11.70187-1.3078,11.14148-2.51941,22.84869-7.76819,35.9375-14.02341l72.07028,72.2265h.01962c6.74789,6.74791,6.74789,17.3927,0,24.14061-3.37402,3.37399-7.7222,5.061-12.07037,5.061s-8.69635-1.68701-12.07034-5.061l-36.21091-36.21091c-.2294-.2397-.47058-.46779-.72269-.68359h-.0195c-.25031-.2146-.51102-.4166-.78119-.6055-1.72943-1.18698-3.70029-1.75621-5.65051-1.75627-3.18521-.00012-6.31598,1.51796-8.25461,4.34247-2.19791,3.20219-2.34308,7.38741-.37228,10.73421.14529.25409.3017.50169.46878.7421.02582.03279.05182.06529.07812.0977.17218.2357.35468.46379.54688.68359.02591.0262.05191.0522.07812.07809.15668.175.31958.34441.48828.50781l36.21091,36.211c6.74789,6.74789,6.74789,17.3927,0,24.14059-3.37396,3.37395-7.72214,5.06093-12.07031,5.06093s-8.69635-1.68698-12.07028-5.06093l-36.211-36.19139v-.0195c-.69992-.71481-1.50311-1.32051-2.38281-1.79691-.58441-.321-1.1994-.5827-1.83591-.7813-.95508-.29631-1.94919-.44771-2.94919-.4492-.33279.0029-.66531.02249-.99609.05859-.66901.0636-1.3299.1945-1.97272.39061-.63651.19859-1.2515.4603-1.83588.7813-.28851.1618-.56882.3378-.8399.5273-.27679.18831-.5441.3904-.80072.6055-.25879.21519-.5065.44341-.74219.68361-.2269.23669-.44199.48439-.64459.74219-.20892.26341-.40451.5372-.58591.82031-.1835.27779-.353.56459-.50781.85939-.14539.2993-.27579.60561-.39059.91791-.12619.30679-.237.61969-.33209.9375v.01959c-.0872.31531-.15891.6347-.2148.957v.0195c-.0551.32339-.09421.6494-.1172.97661v.01949c-.0224.32501-.0289.65091-.0195.97661v.0195c.00999.3266.0361.6525.07809.97659.08391.6644.23441,1.31871.44922,1.95311.10849.31189.2323.6183.37109.918.14099.30719.29739.60699.46878.89839.33652.57141.72913,1.10791,1.17181,1.60161v.0195c.1571.16829.32001.33119.48831.4883v.0195l36.211,36.19139v.01961c6.74789,6.74789,6.74789,17.3731,0,24.121-3.37402,3.374-7.7222,5.061-12.07037,5.061s-8.69635-1.687-12.07034-5.061l-36.21089-36.19141c-.92491-.96559-2.03401-1.73599-3.2617-2.26559-1.2291-.5238-2.5507-.7962-3.8867-.8008-.02322-.00017-.04662-.00024-.06982-.00024-1.65221-.00003-3.27893.40923-4.73488,1.19164-.58919.3148-1.1454.6877-1.6602,1.1133-1.29019,1.0697-2.29089,2.4465-2.9101,4.00391v.01961c-.86,2.18719-.9223,4.60739-.1758,6.83589v.0195c.51599,1.52791,1.3938,2.9082,2.55859,4.0235l36.21091,36.2109c6.74789,6.7479,6.74789,17.37321,0,24.1211-3.37395,3.37395-7.72212,5.06093-12.0703,5.06093s-8.69635-1.68697-12.0703-5.06093L48.69939,187.46283c-38.1869-38.14142-38.4798-99.64801-.6641-138.164,19.2507-19.60339,44.61774-29.42365,69.99203-29.42365,25.0114,0,50.02968,9.53555,69.22678,28.64233l4.33589,4.668c1.97572,2.21896,4.71844,3.35056,7.47282,3.35056,2.3662,0,4.74083-.83456,6.64708-2.53186,4.12511-3.67297,4.4917-9.99469.8187-14.11978-.0945-.10611-.19119-.21021-.2901-.31219l-4.60939-4.96091c-.0894-.0929-.18051-.18411-.27341-.2735C178.34463,11.43515,148.19373,0,118.04726,0h0Z"/></g></svg>