<?xml version="1.0" encoding="UTF-8"?><svg id="Layer_2" xmlns="http://www.w3.org/2000/svg" viewBox="0 0 324.15898 437.0218"><defs><style>.cls-1{fill:none;stroke:#000;stroke-linecap:round;stroke-linejoin:round;stroke-width:20px;}</style></defs><g id="Layer_2-2"><path class="cls-1" d="M52.79911,58.37884h-7.73158c-19.36726,0-35.06753,15.70027-35.06753,35.06753v298.49206c0,19.37601,15.70736,35.08338,35.08338,35.08338h233.84113c19.45946,0,35.23446-15.77501,35.23446-35.23446V93.56773c0-19.43429-15.7546-35.18889-35.18889-35.18889h-38.42557v29.6203c0,9.16944-7.4333,16.60273-16.60273,16.60273h-118.05824c-11.71432,0-21.21065-9.49633-21.21065-21.21065v-25.01239h57.14835c-11.4131-14.90043-9.30383-48.37884,21.97864-48.37884s30.5216,37.5364,20.88388,48.69586"/><line class="cls-1" x1="68.52381" y1="210.45252" x2="152.60028" y2="210.45252"/><line class="cls-1" x1="68.52381" y1="315.62704" x2="152.60028" y2="315.62704"/><polyline class="cls-1" points="202.05702 306.01604 220.69841 325.18934 261.40511 283.91427"/><polyline class="cls-1" points="202.05702 202.30573 220.69841 221.47904 261.40511 180.20397"/></g></svg>