<?xml version="1.0" encoding="UTF-8"?><svg id="Layer_2" xmlns="http://www.w3.org/2000/svg" viewBox="0 0 431.6681 408.06885"><defs><style>.cls-1{fill:none;stroke:#000;stroke-linecap:round;stroke-linejoin:round;stroke-width:20px;}</style></defs><g id="Layer_2-2"><path class="cls-1" d="M184.29754,169.2363l-56.48897,15.83403c-12.15178,3.40618-22.67417,11.06724-29.64772,21.58567l-57.66831,86.98303H10v104.42982h118.15911c19.22702,0,37.38606-8.84151,49.24394-23.97653l76.19736-97.25589c15.02011-17.28101-12.61782-48.25203-37.78822-32.84436l-65.75392,47.36435"/><path class="cls-1" d="M135.72848,245.3236L279.5995,21.52425c7.51716-11.69336,23.10945-15.04489,34.76759-7.47323l95.92321,62.29968c11.48491,7.45916,14.82379,22.77415,7.48593,34.33693l-145.18859,228.78385c-6.37308,10.04251-19.61094,13.13788-29.77621,6.96249l-29.63417-18.00273"/><ellipse class="cls-1" cx="277.51782" cy="179.52304" rx="37.59077" ry="50.86462" transform="translate(-1.88279 356.10152) rotate(-65.19085)"/></g></svg>