<?xml version="1.0" encoding="UTF-8"?><svg id="Layer_2" xmlns="http://www.w3.org/2000/svg" viewBox="0 0 446.00292 374.63421"><defs><style>.cls-1{fill:none;stroke:#000;stroke-linecap:round;stroke-linejoin:round;stroke-width:20px;}</style></defs><g id="Layer_2-2"><path class="cls-1" d="M200.21248,46.32591C93.00809-60.87847-60.87847,93.00807,46.32591,200.21246l157.69092,158.45181c21.05084,21.05081,60.80647-18.7048,39.75563-39.75562l-39.56541-39.56539,39.56541,39.56539c21.28854,21.28858,59.14197-16.56485,37.85342-37.85343l-39.37518-39.37518,39.37518,39.37518c22.28235,22.28233,60.5162-15.95154,38.23386-38.23387l-39.75561-39.75561,39.75561,39.75561c22.57254,22.57256,60.61621-15.47108,38.04367-38.04364l-80.27213-80.27211c-29.49478,12.13754-56.65768,34.85742-87.31017-7.03806l76.0556-76.81648c86.35908-86.35908,221.0019,31.03728,149.35302,129.50692l-19.97291,21.11422"/></g></svg>