<?xml version="1.0" encoding="UTF-8"?>
<svg id="Layer_1" data-name="Layer 1" xmlns="http://www.w3.org/2000/svg" viewBox="0 0 270 270">
  <defs>
    <style>
      .cls-1 {
        fill: #fffef8;
      }
    </style>
  </defs>
  <path class="cls-1" d="M269.51,131.23c-.99-5.19-3.49-10.14-7.5-14.15l-78.12-78.12-20.25-20.25-5.08-5.08-5.71-5.71c-5.83-5.83-13.65-8.35-21.28-7.8-6.33.45-12.53,2.98-17.36,7.8L37.58,84.57l-20.25,20.25-5.08,5.08-4.26,4.26c-6.65,6.65-9.14,15.89-7.5,24.49.99,5.19,3.49,10.14,7.5,14.15l78.11,78.11,20.24,20.24,5.08,5.08,5.71,5.71c5.33,5.33,12.32,7.99,19.32,7.99.66,0,1.31-.14,1.96-.19,6.33-.45,12.53-2.98,17.36-7.8l76.64-76.64,20.26-20.26,5.08-5.08,4.26-4.26c6.65-6.65,9.14-15.89,7.5-24.49ZM12.78,148.01c-3.88-3.88-6.02-9.04-6.02-14.53s2.14-10.65,6.02-14.53l4.26-4.26,87.56,87.55-18.79,18.79L12.78,148.01ZM155.25,67.63l-20.25,20.25h0s-5.08,5.07-5.08,5.07h0s-36.89,36.9-36.89,36.9l-20.25-20.25L158.86,23.51l20.26,20.26-18.79,18.79h0s-5.08,5.07-5.08,5.07h0ZM171.9,134.95l-36.89,36.89-36.9-36.91,36.89-36.89,36.91,36.91ZM67.69,104.52l-20.24-20.24L119.01,12.72c4.01-4.01,9.27-6.01,14.53-6.01s10.53,2,14.53,6.01l5.71,5.71-86.09,86.09ZM129.93,176.92l-20.25,20.25L22.12,109.62l20.25-20.25,87.56,87.56ZM109.68,207.33h0s5.08-5.07,5.08-5.07h0s20.25-20.26,20.25-20.26h0s5.08-5.07,5.08-5.07h-.01s36.89-36.9,36.89-36.9l20.25,20.25-86.09,86.09-20.25-20.25,18.79-18.79ZM202.31,165.36l20.24,20.24-71.56,71.56c-8.01,8.01-21.04,8.01-29.05,0l-5.71-5.71,86.09-86.09ZM140.07,92.97l20.25-20.25,87.56,87.55-20.26,20.26-87.55-87.56ZM165.4,67.63l18.79-18.79,73.03,73.03c3.88,3.88,6.02,9.04,6.02,14.53s-2.13,10.65-6.02,14.53l-4.26,4.26-87.56-87.56Z"/>
</svg>