<?xml version="1.0" encoding="UTF-8"?>
<svg id="Layer_1" data-name="Layer 1" xmlns="http://www.w3.org/2000/svg" viewBox="0 0 600 218.02">
  <defs>
    <style>
      .cls-1 {
        fill: #fff;
      }
    </style>
  </defs>
  <g>
    <path class="cls-1" d="M264.23,22.6h13.59c2.73,0,5.06.5,6.99,1.49,1.93.99,3.38,2.36,4.35,4.1.97,1.74,1.46,3.7,1.46,5.87,0,3-.79,5.44-2.36,7.33-1.57,1.89-3.52,3.15-5.84,3.79l9.77,16.73h-6.18l-9.27-16h-6.91v16h-5.61V22.6ZM277.71,40.97c2.24,0,4.02-.58,5.33-1.74,1.31-1.16,1.97-2.81,1.97-4.94s-.68-3.87-2.02-4.97c-1.35-1.1-3.15-1.66-5.39-1.66h-7.75v13.31h7.86Z"/>
    <path class="cls-1" d="M299.89,49.73c.11,1.5.53,2.88,1.26,4.15.73,1.27,1.73,2.29,3.01,3.06,1.27.77,2.71,1.15,4.32,1.15,1.95,0,3.58-.48,4.91-1.43,1.33-.96,2.22-2.09,2.67-3.4l4.72,1.52c-.82,2.32-2.28,4.22-4.38,5.7-2.1,1.48-4.73,2.22-7.92,2.22-2.7,0-5.1-.65-7.22-1.94-2.11-1.29-3.76-3.06-4.94-5.31-1.18-2.25-1.77-4.73-1.77-7.47s.61-5.16,1.82-7.39c1.22-2.23,2.88-3.99,5-5.28,2.11-1.29,4.46-1.94,7.05-1.94s4.91.59,6.88,1.77c1.97,1.18,3.49,2.84,4.58,4.97,1.09,2.13,1.63,4.6,1.63,7.41v2.19h-21.62ZM314.18,40.21c-1.44-1.48-3.34-2.22-5.7-2.22s-4.29.71-5.79,2.13c-1.5,1.42-2.41,3.18-2.75,5.28h16.62c-.15-1.98-.94-3.72-2.38-5.2Z"/>
    <path class="cls-1" d="M327.52,22.6h5.5v39.31h-5.5V22.6Z"/>
    <path class="cls-1" d="M340.83,28.98c-.71-.69-1.07-1.54-1.07-2.55s.35-1.81,1.07-2.53c.71-.71,1.57-1.07,2.58-1.07s1.8.36,2.5,1.07c.69.71,1.04,1.55,1.04,2.53s-.35,1.86-1.04,2.55c-.69.69-1.53,1.04-2.5,1.04s-1.87-.35-2.58-1.04ZM340.6,34.12h5.5v27.8h-5.5v-27.8Z"/>
    <path class="cls-1" d="M356.95,61.61c-1.46-.73-2.58-1.74-3.37-3.03-.79-1.29-1.18-2.74-1.18-4.35,0-2.4.83-4.37,2.5-5.93s4.45-2.61,8.34-3.17l6.68-.96v-.62c0-3.78-1.98-5.67-5.95-5.67-1.91,0-3.36.44-4.35,1.32s-1.62,2.13-1.88,3.73l-4.89-1.18c1.35-5.58,5.09-8.37,11.23-8.37,3.41,0,6.15.86,8.23,2.58,2.08,1.72,3.12,4.23,3.12,7.53v18.42h-4.66l-.56-2.7c-1.68,2.32-4.42,3.48-8.2,3.48-1.91,0-3.59-.36-5.05-1.09ZM368.01,56.58c1.27-1.05,1.91-2.57,1.91-4.55v-3.65l-6.23.95c-1.98.3-3.47.8-4.46,1.49-.99.69-1.49,1.73-1.49,3.12,0,1.27.51,2.29,1.52,3.06,1.01.77,2.38,1.15,4.1,1.15,1.83,0,3.39-.52,4.66-1.57Z"/>
    <path class="cls-1" d="M391.2,61.35c-1.57-.86-2.83-1.93-3.76-3.2l-.73,3.76h-4.55V22.6h5.5v15.11c.94-1.27,2.19-2.32,3.76-3.14,1.57-.82,3.39-1.24,5.45-1.24,2.7,0,5.05.68,7.08,2.02,2.02,1.35,3.56,3.14,4.63,5.36,1.07,2.23,1.6,4.65,1.6,7.27s-.56,4.94-1.68,7.19c-1.13,2.25-2.71,4.05-4.75,5.42-2.04,1.37-4.35,2.05-6.94,2.05-2.17,0-4.04-.43-5.61-1.29ZM400.52,56.44c1.31-.84,2.33-2,3.06-3.48.73-1.48,1.09-3.14,1.09-4.97s-.36-3.55-1.09-5.03c-.73-1.48-1.75-2.63-3.06-3.45-1.31-.82-2.77-1.24-4.38-1.24-2.51,0-4.56.91-6.15,2.72-1.59,1.81-2.39,4.15-2.39,6.99s.8,5.13,2.39,6.96c1.59,1.83,3.64,2.75,6.15,2.75,1.61,0,3.07-.42,4.38-1.26Z"/>
    <path class="cls-1" d="M416.19,22.6h5.5v39.31h-5.5V22.6Z"/>
    <path class="cls-1" d="M433.04,49.73c.11,1.5.53,2.88,1.26,4.15.73,1.27,1.73,2.29,3.01,3.06,1.27.77,2.71,1.15,4.32,1.15,1.95,0,3.58-.48,4.91-1.43,1.33-.96,2.22-2.09,2.67-3.4l4.72,1.52c-.82,2.32-2.28,4.22-4.38,5.7-2.1,1.48-4.73,2.22-7.92,2.22-2.7,0-5.1-.65-7.22-1.94-2.11-1.29-3.76-3.06-4.94-5.31-1.18-2.25-1.77-4.73-1.77-7.47s.61-5.16,1.82-7.39c1.22-2.23,2.88-3.99,5-5.28,2.11-1.29,4.46-1.94,7.05-1.94s4.91.59,6.88,1.77c1.97,1.18,3.49,2.84,4.58,4.97,1.09,2.13,1.63,4.6,1.63,7.41v2.19h-21.62ZM447.33,40.21c-1.44-1.48-3.34-2.22-5.7-2.22s-4.29.71-5.79,2.13c-1.5,1.42-2.41,3.18-2.75,5.28h16.62c-.15-1.98-.94-3.72-2.38-5.2Z"/>
    <path class="cls-1" d="M264.23,89.99h13.25c3.97,0,7.18,1.04,9.63,3.12s3.68,5.1,3.68,9.07c0,2.58-.57,4.79-1.71,6.63-1.14,1.83-2.71,3.22-4.69,4.16-1.98.94-4.21,1.4-6.68,1.4h-7.86v14.94h-5.61v-39.31ZM277.09,109.31c2.58,0,4.58-.62,5.98-1.85,1.4-1.23,2.11-3.01,2.11-5.33s-.71-4.03-2.14-5.25-3.41-1.83-5.95-1.83h-7.25v14.26h7.25Z"/>
    <path class="cls-1" d="M296.02,101.51h4.55l.84,3.48c.67-1.2,1.64-2.21,2.89-3.03,1.25-.82,2.7-1.24,4.35-1.24,1.08,0,2.06.14,2.92.42.86.28,1.55.61,2.08.98l-2.14,4.83c-.34-.26-.81-.5-1.43-.7-.62-.21-1.34-.31-2.16-.31-1.83,0-3.36.72-4.58,2.16-1.22,1.44-1.82,3.38-1.82,5.81v15.39h-5.5v-27.8Z"/>
    <path class="cls-1" d="M320.45,117.12c.11,1.5.53,2.88,1.26,4.15.73,1.27,1.73,2.29,3.01,3.06,1.27.77,2.71,1.15,4.32,1.15,1.95,0,3.58-.48,4.91-1.43,1.33-.96,2.22-2.09,2.67-3.4l4.72,1.52c-.82,2.32-2.28,4.22-4.38,5.7-2.1,1.48-4.73,2.22-7.92,2.22-2.7,0-5.1-.65-7.22-1.94-2.11-1.29-3.76-3.06-4.94-5.31-1.18-2.25-1.77-4.73-1.77-7.47s.61-5.16,1.82-7.39c1.22-2.23,2.88-3.99,5-5.28,2.11-1.29,4.46-1.94,7.05-1.94s4.91.59,6.88,1.77c1.97,1.18,3.49,2.84,4.58,4.97,1.09,2.13,1.63,4.6,1.63,7.41v2.19h-21.62ZM334.74,107.6c-1.44-1.48-3.34-2.22-5.7-2.22s-4.29.71-5.79,2.13c-1.5,1.42-2.41,3.18-2.75,5.28h16.62c-.15-1.98-.94-3.72-2.38-5.2Z"/>
    <path class="cls-1" d="M348.07,101.51h4.55l.79,3.54c.97-1.35,2.2-2.4,3.68-3.17,1.48-.77,3.17-1.15,5.08-1.15s3.57.42,4.89,1.26c1.31.84,2.28,1.94,2.92,3.28,1.01-1.38,2.3-2.49,3.88-3.31,1.57-.82,3.37-1.24,5.39-1.24,2.69,0,4.87.84,6.54,2.53,1.67,1.69,2.5,4.21,2.5,7.58v18.48h-5.5v-16.73c0-2.43-.47-4.16-1.41-5.17-.94-1.01-2.28-1.52-4.04-1.52s-3.36.67-4.58,2.02c-1.22,1.35-1.82,3.24-1.82,5.67v15.72h-5.5v-16.73c0-4.46-1.8-6.68-5.39-6.68-1.83,0-3.37.67-4.6,2.02-1.23,1.35-1.85,3.24-1.85,5.67v15.72h-5.5v-27.8Z"/>
    <path class="cls-1" d="M396.09,96.37c-.71-.69-1.07-1.54-1.07-2.55s.35-1.81,1.07-2.53c.71-.71,1.57-1.07,2.58-1.07s1.8.36,2.5,1.07c.69.71,1.04,1.55,1.04,2.53s-.35,1.86-1.04,2.55c-.69.69-1.53,1.04-2.5,1.04s-1.87-.35-2.58-1.04ZM395.86,101.51h5.5v27.8h-5.5v-27.8Z"/>
    <path class="cls-1" d="M432.92,129.3h-4.55l-.84-3.54c-2.14,2.88-5.07,4.32-8.82,4.32-3.07,0-5.47-.91-7.19-2.72-1.72-1.81-2.58-4.59-2.58-8.34v-17.52h5.5v16.57c0,2.51.52,4.29,1.57,5.33,1.05,1.05,2.51,1.57,4.38,1.57,1.98,0,3.65-.7,5-2.11,1.35-1.4,2.02-3.34,2.02-5.81v-15.56h5.5v27.8Z"/>
    <path class="cls-1" d="M440.22,101.51h4.55l.79,3.54c.97-1.35,2.2-2.4,3.68-3.17,1.48-.77,3.17-1.15,5.08-1.15s3.57.42,4.89,1.26c1.31.84,2.28,1.94,2.92,3.28,1.01-1.38,2.3-2.49,3.88-3.31,1.57-.82,3.37-1.24,5.39-1.24,2.69,0,4.87.84,6.54,2.53,1.67,1.69,2.5,4.21,2.5,7.58v18.48h-5.5v-16.73c0-2.43-.47-4.16-1.41-5.17-.94-1.01-2.28-1.52-4.04-1.52s-3.36.67-4.58,2.02c-1.22,1.35-1.82,3.24-1.82,5.67v15.72h-5.5v-16.73c0-4.46-1.8-6.68-5.39-6.68-1.83,0-3.37.67-4.6,2.02-1.23,1.35-1.85,3.24-1.85,5.67v15.72h-5.5v-27.8Z"/>
    <path class="cls-1" d="M304.33,196.69h-5.56v-28.92l-12.36,28.92h-4.16l-12.24-28.81-.06,28.81h-5.56v-39.31h6.4l13.59,31.79,13.53-31.79h6.46l-.06,39.31Z"/>
    <path class="cls-1" d="M315.78,196.38c-1.46-.73-2.58-1.74-3.37-3.03-.79-1.29-1.18-2.74-1.18-4.35,0-2.4.83-4.37,2.5-5.93,1.67-1.55,4.45-2.61,8.34-3.17l6.68-.96v-.62c0-3.78-1.98-5.67-5.95-5.67-1.91,0-3.36.44-4.35,1.32-.99.88-1.62,2.13-1.88,3.73l-4.89-1.18c1.35-5.58,5.09-8.37,11.23-8.37,3.41,0,6.15.86,8.23,2.58,2.08,1.72,3.12,4.23,3.12,7.53v18.42h-4.66l-.56-2.7c-1.68,2.32-4.42,3.48-8.2,3.48-1.91,0-3.59-.36-5.05-1.09ZM326.85,191.36c1.27-1.05,1.91-2.57,1.91-4.55v-3.65l-6.23.95c-1.98.3-3.47.8-4.46,1.49-.99.69-1.49,1.73-1.49,3.12,0,1.27.51,2.29,1.52,3.06,1.01.77,2.38,1.15,4.1,1.15,1.83,0,3.39-.52,4.66-1.57Z"/>
    <path class="cls-1" d="M341,168.89h4.55l.84,3.54c2.13-2.88,5.07-4.32,8.82-4.32,3.07,0,5.46.92,7.19,2.75,1.72,1.84,2.58,4.63,2.58,8.37v17.47h-5.5v-16.51c0-2.55-.53-4.33-1.57-5.36-1.05-1.03-2.51-1.54-4.38-1.54-1.98,0-3.65.7-5,2.1-1.35,1.4-2.02,3.34-2.02,5.81v15.5h-5.5v-27.8Z"/>
    <path class="cls-1" d="M375.53,196.38c-1.46-.73-2.58-1.74-3.37-3.03-.79-1.29-1.18-2.74-1.18-4.35,0-2.4.83-4.37,2.5-5.93s4.45-2.61,8.34-3.17l6.68-.96v-.62c0-3.78-1.98-5.67-5.95-5.67-1.91,0-3.36.44-4.35,1.32-.99.88-1.62,2.13-1.88,3.73l-4.89-1.18c1.35-5.58,5.09-8.37,11.23-8.37,3.41,0,6.15.86,8.23,2.58,2.08,1.72,3.12,4.23,3.12,7.53v18.42h-4.66l-.56-2.7c-1.68,2.32-4.42,3.48-8.2,3.48-1.91,0-3.59-.36-5.05-1.09ZM386.6,191.36c1.27-1.05,1.91-2.57,1.91-4.55v-3.65l-6.23.95c-1.98.3-3.47.8-4.46,1.49s-1.49,1.73-1.49,3.12c0,1.27.51,2.29,1.52,3.06,1.01.77,2.38,1.15,4.1,1.15,1.83,0,3.39-.52,4.66-1.57Z"/>
    <path class="cls-1" d="M404.99,206.52c-2.08-1.61-3.51-3.78-4.3-6.51l5.17-1.23c.94,3.63,3.41,5.45,7.41,5.45,2.73,0,4.82-.69,6.26-2.08,1.44-1.39,2.16-3.33,2.16-5.84v-4.16c-.79,1.27-1.96,2.35-3.54,3.23-1.57.88-3.41,1.32-5.51,1.32-2.69,0-5.03-.65-7.02-1.94-1.98-1.29-3.51-3.02-4.58-5.19s-1.6-4.53-1.6-7.08.54-4.92,1.63-7.11c1.08-2.19,2.63-3.95,4.63-5.28,2-1.33,4.3-1.99,6.88-1.99,2.17,0,4.02.42,5.53,1.26,1.52.84,2.7,1.9,3.56,3.17l.9-3.65h4.6v27.29c0,2.4-.52,4.56-1.55,6.49-1.03,1.93-2.58,3.45-4.66,4.58-2.08,1.12-4.65,1.68-7.72,1.68-3.45,0-6.21-.8-8.28-2.41ZM419.36,189.19c1.55-1.7,2.33-3.94,2.33-6.71s-.78-5.08-2.33-6.82c-1.55-1.74-3.57-2.61-6.04-2.61s-4.49.87-6.04,2.61c-1.55,1.74-2.33,4.01-2.33,6.82s.78,5.01,2.33,6.71c1.55,1.7,3.58,2.55,6.1,2.55s4.43-.85,5.98-2.55Z"/>
    <path class="cls-1" d="M438.54,184.51c.11,1.5.53,2.88,1.26,4.15.73,1.27,1.73,2.29,3.01,3.06,1.27.77,2.71,1.15,4.32,1.15,1.95,0,3.58-.48,4.91-1.43,1.33-.96,2.22-2.09,2.67-3.4l4.72,1.52c-.82,2.32-2.28,4.22-4.38,5.7-2.1,1.48-4.73,2.22-7.92,2.22-2.7,0-5.1-.65-7.22-1.94-2.11-1.29-3.76-3.06-4.94-5.31-1.18-2.25-1.77-4.73-1.77-7.47s.61-5.16,1.82-7.39c1.22-2.23,2.88-3.99,5-5.28,2.11-1.29,4.46-1.94,7.05-1.94s4.91.59,6.88,1.77c1.97,1.18,3.49,2.84,4.58,4.97,1.09,2.13,1.63,4.6,1.63,7.41v2.19h-21.62ZM452.83,174.99c-1.44-1.48-3.34-2.22-5.7-2.22s-4.29.71-5.79,2.13c-1.5,1.42-2.41,3.18-2.75,5.28h16.62c-.15-1.98-.94-3.72-2.38-5.2Z"/>
    <path class="cls-1" d="M466.17,168.89h4.55l.79,3.54c.97-1.35,2.2-2.4,3.68-3.17,1.48-.77,3.17-1.15,5.08-1.15s3.57.42,4.89,1.26c1.31.84,2.28,1.94,2.92,3.28,1.01-1.38,2.3-2.49,3.88-3.31,1.57-.82,3.37-1.24,5.39-1.24,2.69,0,4.87.84,6.54,2.53,1.67,1.69,2.5,4.21,2.5,7.58v18.48h-5.5v-16.73c0-2.43-.47-4.16-1.41-5.17-.94-1.01-2.28-1.52-4.04-1.52s-3.36.67-4.58,2.02c-1.22,1.35-1.82,3.24-1.82,5.67v15.72h-5.5v-16.73c0-4.46-1.8-6.68-5.39-6.68-1.83,0-3.37.67-4.6,2.02-1.23,1.35-1.85,3.24-1.85,5.67v15.72h-5.5v-27.8Z"/>
    <path class="cls-1" d="M517.72,184.51c.11,1.5.53,2.88,1.26,4.15.73,1.27,1.73,2.29,3.01,3.06,1.27.77,2.71,1.15,4.32,1.15,1.95,0,3.58-.48,4.91-1.43,1.33-.96,2.22-2.09,2.67-3.4l4.72,1.52c-.82,2.32-2.28,4.22-4.38,5.7-2.1,1.48-4.73,2.22-7.92,2.22-2.7,0-5.1-.65-7.22-1.94-2.11-1.29-3.76-3.06-4.94-5.31-1.18-2.25-1.77-4.73-1.77-7.47s.61-5.16,1.82-7.39c1.22-2.23,2.88-3.99,5-5.28,2.11-1.29,4.46-1.94,7.05-1.94s4.91.59,6.88,1.77c1.97,1.18,3.49,2.84,4.58,4.97s1.63,4.6,1.63,7.41v2.19h-21.62ZM532.01,174.99c-1.44-1.48-3.34-2.22-5.7-2.22s-4.29.71-5.79,2.13c-1.5,1.42-2.41,3.18-2.75,5.28h16.62c-.15-1.98-.94-3.72-2.38-5.2Z"/>
    <path class="cls-1" d="M545.35,168.89h4.55l.84,3.54c2.13-2.88,5.07-4.32,8.82-4.32,3.07,0,5.46.92,7.19,2.75,1.72,1.84,2.58,4.63,2.58,8.37v17.47h-5.5v-16.51c0-2.55-.53-4.33-1.57-5.36-1.05-1.03-2.51-1.54-4.38-1.54-1.98,0-3.65.7-5,2.1-1.35,1.4-2.02,3.34-2.02,5.81v15.5h-5.5v-27.8Z"/>
    <path class="cls-1" d="M580.81,195.43c-1.37-1.37-2.05-3.25-2.05-5.64v-15.95h-5v-4.94h5v-7.25h5.51v7.25h7.52v4.94h-7.52v15.27c0,2.17.97,3.26,2.92,3.26,1.09,0,1.98-.36,2.7-1.07l2.53,3.93c-.48.56-1.26,1.08-2.33,1.54-1.07.47-2.39.7-3.96.7-2.17,0-3.94-.68-5.31-2.05Z"/>
  </g>
  <path class="cls-1" d="M215.8,106.09c-.77-4.01-2.69-7.83-5.79-10.93l-60.35-60.35-15.64-15.64-3.92-3.92-4.41-4.41c-4.5-4.5-10.54-6.45-16.44-6.03-4.89.35-9.68,2.3-13.41,6.03l-59.21,59.21-15.65,15.65-3.92,3.92-3.29,3.29c-5.13,5.13-7.06,12.28-5.79,18.92.77,4.01,2.69,7.83,5.79,10.93l60.35,60.35,15.64,15.64,3.92,3.92,4.41,4.41c4.12,4.11,9.52,6.17,14.93,6.17.51,0,1.01-.11,1.52-.15,4.89-.35,9.68-2.3,13.41-6.03l59.2-59.2,15.65-15.65,3.92-3.92,3.29-3.29c5.13-5.13,7.06-12.28,5.79-18.92ZM17.47,119.06c-3-3-4.65-6.98-4.65-11.22s1.65-8.22,4.65-11.22l3.29-3.29,67.64,67.64-14.51,14.51-56.42-56.42ZM127.53,56.97l-15.65,15.65h0s-3.92,3.92-3.92,3.92h0s-28.5,28.5-28.5,28.5l-15.65-15.65L130.32,22.88l15.65,15.65-14.51,14.51h0s-3.92,3.92-3.92,3.92h0ZM140.39,108.97l-28.5,28.5-28.51-28.51,28.5-28.5,28.51,28.51ZM59.89,85.46l-15.64-15.64L99.53,14.55c3.09-3.09,7.16-4.64,11.22-4.64s8.13,1.55,11.22,4.64l4.41,4.41L59.89,85.46ZM107.97,141.39l-15.65,15.65L24.68,89.4l15.65-15.65,67.64,67.64ZM92.32,164.88h0s3.92-3.92,3.92-3.92h0s15.65-15.65,15.65-15.65h0s3.92-3.91,3.92-3.91h0s28.5-28.51,28.5-28.51l15.65,15.65-66.51,66.5-15.65-15.65,14.51-14.51ZM163.88,132.46l15.64,15.64-55.28,55.28c-6.19,6.19-16.26,6.19-22.45,0l-4.41-4.41,66.5-66.51ZM115.8,76.54l15.65-15.65,67.64,67.64-15.65,15.65-67.64-67.64ZM135.37,56.97l14.51-14.51,56.42,56.42c3,3,4.65,6.98,4.65,11.22s-1.65,8.22-4.65,11.22l-3.29,3.29-67.64-67.64Z"/>
</svg>