<svg xmlns="http://www.w3.org/2000/svg" xmlns:xlink="http://www.w3.org/1999/xlink" viewBox="0,0,256,256" width="480px" height="480px" fill-rule="nonzero"><g fill="#181d27" fill-rule="nonzero" stroke="none" stroke-width="1" stroke-linecap="butt" stroke-linejoin="miter" stroke-miterlimit="10" stroke-dasharray="" stroke-dashoffset="0" font-family="none" font-weight="none" font-size="none" text-anchor="none" style="mix-blend-mode: normal"><g transform="scale(5.33333,5.33333)"><path d="M34.01953,1.05859c-1.36463,0 -2.63627,0.69509 -3.37109,1.84375l-10.16992,15.90039l-7.4668,2.24023c-0.02106,0.00647 -0.04191,0.01364 -0.0625,0.02148c-0.98812,0.37054 -1.77426,1.02889 -2.36328,1.85352c-0.00877,0.01282 -0.01723,0.02585 -0.02539,0.03906l-6.50195,10.03125l-3.0625,0.01172c-0.55074,0.00221 -0.99604,0.44926 -0.99609,1v12c0.00006,0.55226 0.44774,0.99994 1,1h12.86523c2.74897,0 5.34947,-1.25816 7.05664,-3.41406l3.43555,-4.33984l2.29102,1.46484c0.00065,0 0.0013,0 0.00195,0c0.64256,0.41023 1.38854,0.63086 2.15234,0.63086c1.3646,0 2.63616,-0.69688 3.37109,-1.8457l16.16797,-25.27539c1.18327,-1.84994 0.63638,-4.34215 -1.21484,-5.52539l-10.95312,-7.00586h-0.00195c-0.64233,-0.41053 -1.38984,-0.63086 -2.15234,-0.63086zM34.01953,3.05859c0.38086,0 0.75291,0.1096 1.07617,0.31641l10.95313,7.00586c0.93677,0.59876 1.20615,1.82566 0.60742,2.76172l-16.16602,25.27734c-0.37307,0.58317 -0.9941,0.92188 -1.6875,0.92188c-0.38219,0 -0.75073,-0.10864 -1.07617,-0.31641v0.00195l-2.12109,-1.35742l3.44727,-4.35547c1.24245,-1.57046 1.08623,-3.85171 -0.36133,-5.23633c-1.36073,-1.30174 -3.47621,-1.44056 -4.99609,-0.32812c-0.00065,0 -0.0013,0 -0.00195,0l-7.09766,5.19727c-0.29692,0.20782 -0.45818,0.56002 -0.42149,0.92059c0.03669,0.36057 0.26558,0.67307 0.59828,0.81682c0.3327,0.14376 0.71714,0.09627 1.00485,-0.12413l7.09766,-5.19727c0.74811,-0.54756 1.76432,-0.4801 2.43359,0.16016c0.71444,0.68338 0.78934,1.77524 0.17578,2.55078l-8.13086,10.26953c-1.32882,1.6781 -3.34925,2.65625 -5.48828,2.65625h-11.86523v-10.00391l2.60742,-0.00977c0.3369,-0.00154 0.65039,-0.1726 0.83398,-0.45508l6.77148,-10.44922c0.40941,-0.57318 0.82359,-0.91316 1.43164,-1.14258l5.18164,-1.55273l-4.3457,6.79297c-0.29772,0.46545 -0.16174,1.08412 0.30371,1.38184c0.46545,0.29772 1.08412,0.16174 1.38184,-0.30371l5.73633,-8.96875l0.00195,-0.00195c0.0518,-0.06278 0.09575,-0.13165 0.13086,-0.20508l10.29883,-16.10156c0.37318,-0.58334 0.99018,-0.92187 1.68555,-0.92187zM30.25586,15.23242c-1.78778,-0.08225 -3.48686,0.57545 -4.58789,2.29688c-3.91476,6.12064 7.57156,13.46634 11.48633,7.3457c2.81374,-4.39921 -2.32966,-9.43239 -6.89844,-9.64258zM30.03516,17.20703c3.2254,-0.0137 7.31883,3.64232 5.43359,6.58984c-2.51365,3.93004 -10.62889,-1.26137 -8.11523,-5.19141c0.62841,-0.98251 1.60651,-1.39387 2.68164,-1.39844z"></path></g></g></svg>