<svg xmlns="http://www.w3.org/2000/svg"  viewBox="0 0 48 48" width="480px" height="480px"><path d="M 14.316406 6.0488281 C 11.279189 6.0660505 8.2487294 7.2444424 5.9570312 9.578125 C 1.4226016 14.196526 1.4578014 21.635129 6.0371094 26.208984 L 21.839844 41.994141 C 23.279052 43.433348 25.642823 43.433348 27.082031 41.994141 C 27.83683 41.239342 28.185353 40.231039 28.148438 39.234375 C 29.145734 39.27183 30.154867 38.923258 30.910156 38.167969 C 31.670974 37.407151 32.002559 36.391121 31.958984 35.386719 C 32.96285 35.429829 33.977882 35.09829 34.738281 34.337891 C 35.493571 33.582601 35.842143 32.573468 35.804688 31.576172 C 36.801984 31.613627 37.811117 31.265055 38.566406 30.509766 C 40.005214 29.070957 40.004415 26.708853 38.566406 25.269531 L 38.566406 25.267578 L 30.900391 17.585938 A 1.0001 1.0001 0 0 0 29.742188 17.400391 C 28.128376 18.217572 27.026692 18.657241 25.908203 18.910156 C 24.666998 19.190636 23.500367 18.61577 22.697266 17.667969 L 29.707031 10.65625 C 33.190884 7.1723974 38.809116 7.1723974 42.292969 10.65625 C 45.776821 14.140103 45.776821 19.758335 42.292969 23.242188 L 41.384766 24.150391 A 1.0001 1.0001 0 1 0 42.798828 25.564453 L 43.707031 24.65625 C 47.955179 20.408103 47.955179 13.490335 43.707031 9.2421875 C 41.582911 7.1181608 38.791517 6.0566406 36 6.0566406 C 33.208483 6.0566406 30.417042 7.1181138 28.292969 9.2421875 L 20.59375 16.943359 A 1.0001 1.0001 0 0 0 20.417969 18.121094 C 21.553632 20.25291 23.982849 21.396154 26.349609 20.861328 C 27.463758 20.609394 28.63448 20.084505 29.943359 19.458984 L 37.150391 26.681641 A 1.0001 1.0001 0 0 0 37.152344 26.681641 C 37.827136 27.356433 37.827136 28.420911 37.152344 29.095703 C 36.477552 29.770495 35.413073 29.770495 34.738281 29.095703 L 31.117188 25.474609 A 1.0001 1.0001 0 0 0 31.044922 25.40625 A 1.0001 1.0001 0 0 0 31.042969 25.40625 A 1.0001 1.0001 0 0 0 30.964844 25.345703 A 1.0001 1.0001 0 0 0 29.537109 26.677734 A 1.0001 1.0001 0 0 0 29.583984 26.751953 A 1.0001 1.0001 0 0 0 29.591797 26.761719 A 1.0001 1.0001 0 0 0 29.646484 26.830078 A 1.0001 1.0001 0 0 0 29.654297 26.837891 A 1.0001 1.0001 0 0 0 29.703125 26.888672 L 33.324219 30.509766 C 33.999011 31.184558 33.999011 32.249036 33.324219 32.923828 C 32.649427 33.59862 31.584948 33.59862 30.910156 32.923828 L 27.289062 29.304688 L 27.289062 29.302734 A 1.0001 1.0001 0 0 0 27.050781 29.123047 A 1.0001 1.0001 0 0 0 26.867188 29.044922 A 1.0001 1.0001 0 0 0 26.572266 29 A 1.0001 1.0001 0 0 0 26.472656 29.005859 A 1.0001 1.0001 0 0 0 26.275391 29.044922 A 1.0001 1.0001 0 0 0 26.091797 29.123047 A 1.0001 1.0001 0 0 0 26.007812 29.175781 A 1.0001 1.0001 0 0 0 25.927734 29.236328 A 1.0001 1.0001 0 0 0 25.853516 29.304688 A 1.0001 1.0001 0 0 0 25.789062 29.378906 A 1.0001 1.0001 0 0 0 25.730469 29.460938 A 1.0001 1.0001 0 0 0 25.679688 29.546875 A 1.0001 1.0001 0 0 0 25.640625 29.638672 A 1.0001 1.0001 0 0 0 25.607422 29.732422 A 1.0001 1.0001 0 0 0 25.607422 29.734375 A 1.0001 1.0001 0 0 0 25.585938 29.830078 A 1.0001 1.0001 0 0 0 25.585938 29.832031 A 1.0001 1.0001 0 0 0 25.574219 29.929688 A 1.0001 1.0001 0 0 0 25.574219 29.931641 A 1.0001 1.0001 0 0 0 25.572266 30.029297 A 1.0001 1.0001 0 0 0 25.572266 30.03125 A 1.0001 1.0001 0 0 0 25.580078 30.128906 A 1.0001 1.0001 0 0 0 25.625 30.324219 A 1.0001 1.0001 0 0 0 25.662109 30.416016 A 1.0001 1.0001 0 0 0 25.708984 30.505859 A 1.0001 1.0001 0 0 0 25.826172 30.666016 A 1.0001 1.0001 0 0 0 25.826172 30.667969 A 1.0001 1.0001 0 0 0 25.875 30.716797 A 1.0001 1.0001 0 0 0 25.875 30.71875 L 29.496094 34.337891 L 29.496094 34.339844 C 30.170886 35.014636 30.170886 36.077161 29.496094 36.751953 C 28.821302 37.426745 27.756823 37.426745 27.082031 36.751953 L 23.460938 33.132812 A 1.0001 1.0001 0 0 0 23.134766 32.90625 A 1.0001 1.0001 0 0 0 22.746094 32.826172 A 1.0001 1.0001 0 0 0 22.265625 32.945312 A 1.0001 1.0001 0 0 0 22.099609 33.056641 A 1.0001 1.0001 0 0 0 21.808594 33.457031 A 1.0001 1.0001 0 0 0 21.808594 33.458984 A 1.0001 1.0001 0 0 0 21.791016 34.142578 A 1.0001 1.0001 0 0 0 21.791016 34.144531 A 1.0001 1.0001 0 0 0 22.046875 34.546875 L 25.667969 38.167969 C 26.342761 38.842761 26.342761 39.905286 25.667969 40.580078 C 24.993177 41.25487 23.928698 41.25487 23.253906 40.580078 L 7.4492188 24.794922 C 3.6305267 20.980777 3.6012421 14.830115 7.3828125 10.978516 C 11.205416 7.0858804 17.437416 7.0513102 21.304688 10.900391 L 21.738281 11.367188 A 1.0001 1.0001 0 1 0 23.203125 10.005859 L 22.742188 9.5097656 A 1.0001 1.0001 0 0 0 22.714844 9.4824219 C 20.396479 7.1749619 17.353624 6.0316057 14.316406 6.0488281 z"/></svg>